<?xml version="1.0" encoding="utf-8"?>
<!-- Generator: Adobe Illustrator 25.1.0, SVG Export Plug-In . SVG Version: 6.00 Build 0)  -->
<svg version="1.1" id="Layer_2_00000090292794692205507400000014601491417445596312_"
	 xmlns="http://www.w3.org/2000/svg" xmlns:xlink="http://www.w3.org/1999/xlink" x="0px" y="0px" viewBox="0 0 165.2 59.6"
	 style="enable-background:new 0 0 165.2 59.6;" xml:space="preserve">
<style type="text/css">
	.st0{fill:#84C9BD;}
	.st1{fill:url(#SVGID_1_);}
	.st2{fill:#FFFFFF;}
	.st3{fill:#3EB7AE;}
</style>
<g id="Layer_1-2">
	<g>
		<path class="st0" d="M66.6,23c0,12.7-10.3,23-23,23s-23-10.3-23-23s10.3-23,23-23S66.6,10.3,66.6,23"/>
		<g>
			
				<linearGradient id="SVGID_1_" gradientUnits="userSpaceOnUse" x1="79.21" y1="29.13" x2="84.71" y2="29.13" gradientTransform="matrix(1 0 0 -1 0 59.89)">
				<stop  offset="0" style="stop-color:#84C9BB"/>
				<stop  offset="1" style="stop-color:#3EB7AE"/>
			</linearGradient>
			<path class="st1" d="M79.8,29.1c-1,1.7-0.5,4,1.1,5.1v-1.2c0-1.7,0.5-3.1,1.4-4c0.7-0.7,1.5-1.2,2.4-1.4
				c-0.6-0.3-1.1-0.4-1.7-0.4C81.7,27.3,80.5,27.9,79.8,29.1"/>
			<g>
				<path class="st2" d="M110.3,38.5V33c0-0.7-0.1-1.2-0.3-1.5s-0.5-0.5-0.8-0.5h-0.2c-0.3,0-0.6,0.2-0.8,0.5s-0.3,0.8-0.3,1.5v15.3
					c0,0.7,0.1,1.2,0.3,1.5c0.2,0.3,0.5,0.5,0.7,0.5h0.3c0.3,0,0.6-0.2,0.8-0.5c0.2-0.3,0.3-0.8,0.3-1.5v-5.6h3.1v5.7
					c0,1.5-0.4,2.6-1.2,3.4c-0.8,0.8-1.7,1.2-2.8,1.2h-0.9c-1,0-1.9-0.4-2.7-1.2s-1.2-1.9-1.2-3.3V32.9c0-1.5,0.4-2.6,1.1-3.4
					s1.7-1.2,2.8-1.2h0.8c1.1,0,2,0.4,2.8,1.2s1.2,1.9,1.2,3.3v5.6L110.3,38.5L110.3,38.5z"/>
				<rect x="51.9" y="18.4" class="st2" width="3.1" height="34"/>
				<rect x="98.9" y="28.7" class="st2" width="3.1" height="23.7"/>
				<path class="st2" d="M72.2,33c0-0.7,0.1-1.2,0.3-1.5c0.2-0.3,0.5-0.5,0.8-0.5h0.2c0.3,0,0.6,0.2,0.8,0.5
					c0.2,0.3,0.3,0.8,0.3,1.5v6.2h-2.5C72.1,39.2,72.1,33,72.2,33z M77.8,41.3v-8.4c0-1.4-0.4-2.5-1.2-3.3c-0.8-0.8-1.7-1.2-2.8-1.2
					H73c-1.1,0-2.1,0.4-2.8,1.2s-1.1,1.9-1.1,3.4v15.4c0,1.4,0.4,2.5,1.2,3.3c0.8,0.8,1.7,1.2,2.7,1.2h0.9c1.1,0,2-0.4,2.8-1.2
					s1.2-1.9,1.2-3.4v-2.9h-3.1v2.9c0,0.7-0.1,1.2-0.3,1.5s-0.5,0.5-0.8,0.5h-0.3c-0.3,0-0.5-0.2-0.7-0.5c-0.2-0.3-0.3-0.8-0.3-1.5
					v-6.9L77.8,41.3L77.8,41.3z"/>
				<path class="st2" d="M63.3,28.7v19.4c0,0.7-0.1,1.2-0.3,1.5s-0.5,0.5-0.8,0.5h-0.3c-0.3,0-0.5-0.2-0.7-0.5
					c-0.2-0.3-0.3-0.8-0.3-1.5V28.7h-3.1v19.4c0,1.4,0.4,2.5,1.2,3.3c0.8,0.8,1.7,1.2,2.7,1.2h0.9c1.1,0,2-0.4,2.8-1.2
					s1.2-1.9,1.2-3.4V28.7L63.3,28.7L63.3,28.7z"/>
				<path class="st2" d="M95,29.7c-0.8-0.8-1.7-1.2-2.7-1.2h-0.9c-0.9,0-1.8,0.3-2.4,0.9c-0.7-0.6-1.5-0.9-2.3-0.9h-0.9
					c-1.1,0-2,0.4-2.8,1.2s-1.2,1.9-1.2,3.4v19.4h3.1V33.1c0-0.7,0.1-1.2,0.3-1.5s0.5-0.5,0.8-0.5h0.3c0.3,0,0.5,0.1,0.7,0.5
					s0.3,0.8,0.3,1.5v19.4h3.1V33.1c0-0.7,0.1-1.2,0.3-1.5c0.2-0.3,0.5-0.5,0.8-0.5H92c0.3,0,0.5,0.1,0.7,0.5s0.3,0.8,0.3,1.5v19.4
					h3.1V33.1C96.2,31.6,95.8,30.5,95,29.7"/>
				<path class="st2" d="M46.1,48.1c0,0.7-0.1,1.2-0.3,1.5s-0.5,0.5-0.8,0.5h-0.2c-0.3,0-0.6-0.2-0.8-0.5s-0.3-0.8-0.3-1.5V32.8
					c0-0.7,0.1-1.2,0.3-1.5s0.5-0.5,0.8-0.5H45c0.3,0,0.6,0.2,0.8,0.5c0.2,0.3,0.3,0.8,0.3,1.5V48.1z M48,29.4
					c-0.8-0.8-1.7-1.2-2.8-1.2h-0.8c-0.3,0-0.6,0-0.9,0.1v-9.9h-3.1v29.8c0,1.4,0.4,2.5,1.1,3.3s1.7,1.2,2.8,1.2h0.8
					c1.1,0,2-0.4,2.8-1.2s1.2-1.9,1.2-3.3V32.7C49.2,31.3,48.8,30.2,48,29.4"/>
				<path class="st2" d="M119.1,33c0-0.7,0.1-1.2,0.3-1.5c0.2-0.3,0.5-0.5,0.8-0.5h0.2c0.3,0,0.6,0.2,0.8,0.5
					c0.2,0.3,0.3,0.8,0.3,1.5v6.2h-2.5C119.1,39.2,119.1,33,119.1,33z M124.8,41.3v-8.4c0-1.4-0.4-2.5-1.2-3.3
					c-0.8-0.8-1.7-1.2-2.8-1.2H120c-1.1,0-2.1,0.4-2.8,1.2s-1.1,1.9-1.1,3.4v15.4c0,1.4,0.4,2.5,1.2,3.3c0.8,0.8,1.7,1.2,2.7,1.2
					h0.9c1.1,0,2-0.4,2.8-1.2s1.2-1.9,1.2-3.4v-2.9h-3.1v2.9c0,0.7-0.1,1.2-0.3,1.5s-0.5,0.5-0.8,0.5h-0.3c-0.3,0-0.5-0.2-0.7-0.5
					c-0.2-0.3-0.3-0.8-0.3-1.5v-6.9L124.8,41.3L124.8,41.3z"/>
			</g>
			<g>
				<path class="st2" d="M51,59.5h-1.9v-3.4H51v0.4h-1.4v1h1.3v0.4h-1.3v1.2H51C51,59.1,51,59.5,51,59.5z"/>
				<path class="st2" d="M55.2,56.1l-1.2,3.4h-0.5l-1.2-3.4h0.5l0.8,2.2c0,0.1,0,0.2,0.1,0.2c0,0.1,0,0.2,0.1,0.2s0,0.2,0,0.2
					c0-0.1,0-0.2,0-0.2c0-0.1,0-0.2,0.1-0.3s0-0.2,0.1-0.2l0.8-2.2L55.2,56.1L55.2,56.1z"/>
				<path class="st2" d="M58.5,59.5h-1.9v-3.4h1.9v0.4h-1.4v1h1.3v0.4h-1.3v1.2h1.4C58.5,59.1,58.5,59.5,58.5,59.5z"/>
				<path class="st2" d="M63,59.5h-0.6l-1.8-2.8h0c0,0.1,0,0.2,0,0.3c0,0.1,0,0.2,0,0.3s0,0.2,0,0.3v1.9h-0.4v-3.4h0.6l1.8,2.8h0
					c0-0.1,0-0.2,0-0.2c0-0.1,0-0.2,0-0.3s0-0.2,0-0.3v-1.9H63L63,59.5L63,59.5z"/>
				<path class="st2" d="M66,59.5h-0.5v-3h-1v-0.4H67v0.4h-1L66,59.5L66,59.5z"/>
				<path class="st2" d="M70.4,58.6c0,0.2-0.1,0.4-0.2,0.5s-0.2,0.2-0.4,0.3s-0.4,0.1-0.7,0.1c-0.1,0-0.2,0-0.4,0
					c-0.1,0-0.2,0-0.3-0.1c-0.1,0-0.2-0.1-0.3-0.1v-0.5c0.1,0,0.3,0.1,0.4,0.2c0.2,0,0.3,0.1,0.5,0.1c0.2,0,0.3,0,0.4-0.1
					c0.1,0,0.2-0.1,0.2-0.2c0.1-0.1,0.1-0.2,0.1-0.3s0-0.2-0.1-0.3s-0.1-0.1-0.2-0.2S69.4,58,69.2,58c-0.1,0-0.2-0.1-0.3-0.2
					c-0.1-0.1-0.2-0.1-0.3-0.2c-0.1-0.1-0.1-0.2-0.2-0.3c0-0.1-0.1-0.2-0.1-0.4c0-0.2,0.1-0.3,0.1-0.5s0.2-0.2,0.4-0.3
					s0.4-0.1,0.6-0.1c0.2,0,0.3,0,0.5,0c0.2,0,0.3,0.1,0.4,0.2l-0.2,0.4c-0.1,0-0.3-0.1-0.4-0.1c-0.1,0-0.3,0-0.4,0
					c-0.1,0-0.2,0-0.3,0.1c-0.1,0-0.2,0.1-0.2,0.2s-0.1,0.2-0.1,0.2c0,0.1,0,0.2,0.1,0.3s0.1,0.1,0.2,0.2s0.2,0.1,0.4,0.2
					c0.2,0.1,0.4,0.2,0.5,0.2c0.1,0.1,0.2,0.2,0.3,0.3S70.4,58.4,70.4,58.6L70.4,58.6z"/>
				<path class="st2" d="M75.3,56.1c0.2,0,0.3,0,0.4,0.1s0.2,0.1,0.3,0.2s0.1,0.2,0.1,0.4c0,0.2-0.1,0.4-0.2,0.5s-0.3,0.3-0.5,0.4
					l0.9,0.8c0.1-0.1,0.2-0.2,0.2-0.3c0.1-0.1,0.1-0.3,0.1-0.4h0.5C77.1,58,77,58.2,77,58.4c-0.1,0.2-0.2,0.3-0.3,0.5l0.7,0.7h-0.6
					l-0.4-0.4c-0.1,0.1-0.2,0.2-0.3,0.2s-0.2,0.1-0.4,0.2s-0.3,0-0.4,0c-0.2,0-0.4,0-0.6-0.1c-0.2-0.1-0.3-0.2-0.4-0.3
					s-0.1-0.3-0.1-0.5c0-0.2,0-0.3,0.1-0.4s0.1-0.2,0.2-0.3s0.2-0.2,0.4-0.3c-0.1-0.1-0.1-0.2-0.2-0.2s-0.1-0.2-0.2-0.3
					s-0.1-0.2-0.1-0.3c0-0.2,0-0.3,0.1-0.4s0.2-0.2,0.3-0.3S75.1,56.1,75.3,56.1L75.3,56.1z M75.1,57.9C75,58,74.9,58,74.8,58.1
					c-0.1,0.1-0.1,0.1-0.2,0.2s-0.1,0.2-0.1,0.3c0,0.2,0.1,0.3,0.2,0.4s0.3,0.2,0.5,0.2s0.3,0,0.5-0.1c0.1-0.1,0.2-0.1,0.3-0.2
					C76.1,58.8,75.1,57.9,75.1,57.9z M75.3,56.4c-0.1,0-0.2,0-0.3,0.1c-0.1,0.1-0.1,0.2-0.1,0.3c0,0.1,0,0.2,0.1,0.3
					s0.1,0.2,0.2,0.3c0.2-0.1,0.3-0.2,0.4-0.3c0.1-0.1,0.1-0.2,0.1-0.3c0-0.1,0-0.2-0.1-0.3S75.4,56.4,75.3,56.4z"/>
				<path class="st2" d="M82.5,59.5l-1.1-2.9h0c0,0.1,0,0.2,0,0.2c0,0.1,0,0.2,0,0.3s0,0.2,0,0.3v2H81v-3.4h0.7l1,2.8h0l1-2.8h0.7
					v3.4H84v-2c0-0.1,0-0.2,0-0.3s0-0.2,0-0.3c0-0.1,0-0.2,0-0.2h0l-1.1,2.9L82.5,59.5L82.5,59.5z"/>
				<path class="st2" d="M88.4,59.5l-0.4-1h-1.3l-0.4,1h-0.5l1.3-3.4h0.5l1.3,3.4C88.9,59.5,88.4,59.5,88.4,59.5z M87.9,58.1l-0.4-1
					c0,0,0-0.1-0.1-0.2s0-0.1-0.1-0.2c0-0.1,0-0.1-0.1-0.2c0,0.1,0,0.1-0.1,0.2c0,0.1,0,0.1-0.1,0.2s0,0.1-0.1,0.2l-0.4,1L87.9,58.1
					L87.9,58.1z"/>
				<path class="st2" d="M91.3,56.1c0.3,0,0.5,0,0.7,0.1s0.3,0.2,0.4,0.3s0.1,0.3,0.1,0.5c0,0.2,0,0.3-0.1,0.4s-0.2,0.2-0.2,0.3
					S92.1,58,91.9,58l0.9,1.5h-0.6l-0.8-1.4h-0.6v1.4h-0.5v-3.4C90.4,56.1,91.3,56.1,91.3,56.1z M91.3,56.5h-0.4v1.2h0.5
					c0.3,0,0.5,0,0.6-0.2c0.1-0.1,0.2-0.3,0.2-0.5s-0.1-0.4-0.2-0.5S91.6,56.5,91.3,56.5L91.3,56.5z"/>
				<path class="st2" d="M96.9,59.5h-0.6l-1.1-1.6l-0.3,0.3v1.3h-0.5v-3.4h0.5v1.7c0.1-0.1,0.2-0.2,0.2-0.3c0.1-0.1,0.2-0.2,0.2-0.3
					l1-1.1h0.6l-1.3,1.5L96.9,59.5L96.9,59.5z"/>
				<path class="st2" d="M100.2,59.5h-1.9v-3.4h1.9v0.4h-1.4v1h1.3v0.4h-1.3v1.2h1.4C100.2,59.1,100.2,59.5,100.2,59.5z"/>
				<path class="st2" d="M103.1,59.5h-0.5v-3h-1v-0.4h2.6v0.4h-1L103.1,59.5L103.1,59.5z"/>
				<path class="st2" d="M105.6,59.5v-3.4h0.5v3.4H105.6z"/>
				<path class="st2" d="M110.7,59.5h-0.6l-1.8-2.8h0c0,0.1,0,0.2,0,0.3c0,0.1,0,0.2,0,0.3s0,0.2,0,0.3v1.9H108v-3.4h0.6l1.8,2.8h0
					c0-0.1,0-0.2,0-0.2s0-0.2,0-0.3s0-0.2,0-0.3v-1.9h0.4L110.7,59.5L110.7,59.5z"/>
				<path class="st2" d="M114,57.7h1.2v1.7c-0.2,0.1-0.4,0.1-0.6,0.1s-0.4,0-0.6,0c-0.3,0-0.7-0.1-0.9-0.2s-0.4-0.3-0.6-0.6
					c-0.1-0.3-0.2-0.6-0.2-0.9s0.1-0.7,0.2-0.9s0.3-0.5,0.6-0.6s0.6-0.2,1-0.2c0.2,0,0.4,0,0.5,0c0.2,0,0.3,0.1,0.5,0.2l-0.2,0.4
					c-0.1,0-0.2-0.1-0.4-0.1s-0.3-0.1-0.5-0.1c-0.3,0-0.5,0.1-0.7,0.2c-0.2,0.1-0.3,0.3-0.4,0.5s-0.2,0.4-0.2,0.7s0,0.5,0.1,0.7
					s0.2,0.4,0.4,0.5s0.4,0.2,0.7,0.2c0.1,0,0.3,0,0.4,0c0.1,0,0.2,0,0.3-0.1v-1H114C114,58.1,114,57.7,114,57.7z"/>
			</g>
		</g>
		<g>
			<g>
				<path class="st0" d="M165.2,45.5c-0.1-0.2-0.8,0-0.9,0.1c-0.9,0.2-4.2,0.6-6.4,0.6c-0.8,0-1.4,0-1.8-0.2
					c-0.3-0.1-0.4-0.2-0.4-0.5c0-0.3,0.1-0.6,0.1-0.8c0-0.3-0.4-0.6-0.7-0.7c-1.1-0.1-2.5,0.6-3.1,1.1l0-0.7c0-0.1-0.1-0.3-0.3-0.4
					c-0.2-0.1-0.4-0.1-0.4,0.1l0,0.3c-0.3,0-0.9,0.1-1.7,0.1c-0.4,0-0.9,0-1.4-0.1c-0.3-0.3-0.7-0.6-1.2-0.7c-0.4,0-0.5,0.2-0.6,0.5
					c0,0-0.1,0-0.1,0c-0.1,0-0.2,0.1-0.3,0.2c-0.2,0-0.9,0.1-1.8,0.1c-0.4,0-0.9,0-1.4-0.1c-0.3-0.3-0.7-0.6-1.2-0.7
					c-0.4,0-0.5,0.2-0.6,0.5c0,0-0.1,0-0.1,0c-0.2,0.1-0.5,0.4-0.7,0.8c-0.7,0.5-2.1,1.1-2.6,1.1c-0.3,0-0.5-0.1-0.7-0.2
					c-0.4-0.3-0.5-1-0.7-1.4c-0.1-0.2-0.5-0.4-0.6-0.3l-1.9,1.5c-0.2-0.7-0.2-1.1-0.4-1.6c-0.1-0.2-0.5-0.4-0.6-0.3
					c-0.8,0.4-1.5,1.2-2.1,1.9c0-0.6,0.1-1,0-1.5c0.1-0.2-0.6-0.7-0.6-0.3c-0.1,0.5-0.1,1-0.1,1.7c0,0.3,0,0.6,0,0.8
					c0.1,0.2,0.6,0.6,0.7,0.5c0.8-0.7,1.3-1.7,2.3-2.3c0.2,0.8,0.3,1.2,0.5,1.6c0.1,0.2,0.5,0.4,0.6,0.3c0.5-0.3,1-0.7,1.9-1.4
					c0.1,0.2,0.1,0.4,0.3,0.6c0.2,0.2,0.4,0.5,0.6,0.7c0.4,0.3,0.9,0.4,1.3,0.4c0.7,0,1.5-0.4,2-0.8c0,0.1,0,0.2,0,0.3
					c0.1,0.5,0.6,1.1,1.3,1.2c0.9,0.1,1.7-0.4,1.8-1.4c0.1-0.3,0-0.6,0-0.8c1,0,2-0.1,2.6-0.2c-0.2,0.4-0.3,0.8-0.2,1.2
					c0.1,0.5,0.6,1.1,1.3,1.2c0.9,0.1,1.7-0.4,1.8-1.4c0.1-0.3,0-0.6,0-0.8c1.1,0,2.2-0.1,2.7-0.2l-0.1,1.2c0,0.2,0,0.4,0,0.6
					c0,0.3,0.7,0.5,0.7,0.2l0-0.4c0.4-0.8,1.8-1.7,3.2-1.9c-0.1,1.8,1.2,2,1.5,2.2c0.5,0.1,1.1,0.2,1.8,0.2c2.1,0,4.9-0.5,6.3-0.9
					C164.6,46,165.4,45.7,165.2,45.5L165.2,45.5z M141.2,46.9c-0.4,0-0.6-0.2-0.7-0.8c-0.1-0.5,0.3-1.2,0.5-1.4l0,0
					c0.3,0.2,0.6,0.3,1.1,0.4C142.5,45.8,142.1,46.9,141.2,46.9L141.2,46.9z M146.7,46.9c-0.4,0-0.6-0.2-0.7-0.8
					c-0.1-0.5,0.3-1.2,0.5-1.4l0,0c0.3,0.2,0.6,0.3,1.1,0.4C147.9,45.8,147.5,46.9,146.7,46.9L146.7,46.9z"/>
				<path class="st3" d="M165.2,45.5c-0.1-0.2-0.8,0-0.9,0.1c-0.9,0.2-4.2,0.6-6.4,0.6c-0.8,0-1.4,0-1.8-0.2
					c-0.3-0.1-0.4-0.2-0.4-0.5c0-0.3,0.1-0.6,0.1-0.8c0-0.3-0.4-0.6-0.7-0.7c-1.1-0.1-2.5,0.6-3.1,1.1l0-0.7c0-0.1-0.1-0.3-0.3-0.4
					c-0.2-0.1-0.4-0.1-0.4,0.1l0,0.3c-0.3,0-0.9,0.1-1.7,0.1c-0.4,0-0.9,0-1.4-0.1c-0.3-0.3-0.7-0.6-1.2-0.7c-0.4,0-0.5,0.2-0.6,0.5
					c0,0-0.1,0-0.1,0c-0.1,0-0.2,0.1-0.3,0.2c-0.2,0-0.9,0.1-1.8,0.1c-0.4,0-0.9,0-1.4-0.1c-0.3-0.3-0.7-0.6-1.2-0.7
					c-0.4,0-0.5,0.2-0.6,0.5c0,0-0.1,0-0.1,0c-0.2,0.1-0.5,0.4-0.7,0.8c-0.7,0.5-2.1,1.1-2.6,1.1c-0.3,0-0.5-0.1-0.7-0.2
					c-0.4-0.3-0.5-1-0.7-1.4c-0.1-0.2-0.5-0.4-0.6-0.3l-1.9,1.5c-0.2-0.7-0.2-1.1-0.4-1.6c-0.1-0.2-0.5-0.4-0.6-0.3
					c-0.8,0.4-1.5,1.2-2.1,1.9c0-0.6,0.1-1,0-1.5c0.1-0.2-0.6-0.7-0.6-0.3c-0.1,0.5-0.1,1-0.1,1.7c0,0.3,0,0.6,0,0.8
					c0.1,0.2,0.6,0.6,0.7,0.5c0.8-0.7,1.3-1.7,2.3-2.3c0.2,0.8,0.3,1.2,0.5,1.6c0.1,0.2,0.5,0.4,0.6,0.3c0.5-0.3,1-0.7,1.9-1.4
					c0.1,0.2,0.1,0.4,0.3,0.6c0.2,0.2,0.4,0.5,0.6,0.7c0.4,0.3,0.9,0.4,1.3,0.4c0.7,0,1.5-0.4,2-0.8c0,0.1,0,0.2,0,0.3
					c0.1,0.5,0.6,1.1,1.3,1.2c0.9,0.1,1.7-0.4,1.8-1.4c0.1-0.3,0-0.6,0-0.8c1,0,2-0.1,2.6-0.2c-0.2,0.4-0.3,0.8-0.2,1.2
					c0.1,0.5,0.6,1.1,1.3,1.2c0.9,0.1,1.7-0.4,1.8-1.4c0.1-0.3,0-0.6,0-0.8c1.1,0,2.2-0.1,2.7-0.2l-0.1,1.2c0,0.2,0,0.4,0,0.6
					c0,0.3,0.7,0.5,0.7,0.2l0-0.4c0.4-0.8,1.8-1.7,3.2-1.9c-0.1,1.8,1.2,2,1.5,2.2c0.5,0.1,1.1,0.2,1.8,0.2c2.1,0,4.9-0.5,6.3-0.9
					C164.6,46,165.4,45.7,165.2,45.5L165.2,45.5z M141.2,46.9c-0.4,0-0.6-0.2-0.7-0.8c-0.1-0.5,0.3-1.2,0.5-1.4l0,0
					c0.3,0.2,0.6,0.3,1.1,0.4C142.5,45.8,142.1,46.9,141.2,46.9L141.2,46.9z M146.7,46.9c-0.4,0-0.6-0.2-0.7-0.8
					c-0.1-0.5,0.3-1.2,0.5-1.4l0,0c0.3,0.2,0.6,0.3,1.1,0.4C147.9,45.8,147.5,46.9,146.7,46.9L146.7,46.9z"/>
			</g>
			<g>
				<path class="st0" d="M41.7,44.2c-0.5,0.4-6,2.7-8.4,2.7c-0.9,0-1.8-0.4-1.9-1.4c1.1,0.1,1.9-0.7,1.9-1.4c0-0.2-0.2-0.4-0.5-0.6
					c-0.2-0.1-0.4-0.1-0.6-0.1c-0.8,0-1.4,0.6-1.6,1.5c-1.1,0.9-2.4,1.8-3.8,1.9c-0.9,0-1.4-0.6-1.2-1.4c0.1-0.7,0.9-1.4,1.6-1.3
					c0,0.2-0.1,0.4-0.1,0.4c-0.1,0.2,0,0.3,0.2,0.2c0.2-0.1,0.6-0.2,0.6-0.5c0-0.2-0.2-0.4-0.4-0.6c-0.2-0.1-0.5-0.2-0.7-0.2
					c-0.4,0-0.8,0.2-1,0.4s-0.5,0.5-0.6,0.8c-0.8,0.5-2.1,1.6-3.1,1.6c-0.2,0-0.5-0.1-0.6-0.2c-0.2-0.4,0-1.1,0-1.4
					c0-0.3-0.4-0.6-0.7-0.7c-1.1-0.1-2.5,0.6-3.1,1.1l0-0.7c0-0.1-0.1-0.3-0.3-0.4c-0.2-0.1-0.4-0.1-0.4,0.1l-0.1,0.8
					c-0.9,0.5-2.5,1.1-3.7,1.4l-0.2,0l0.1-0.4c0.2-0.7,0.2-1.7,0.2-2.6c0-0.4,0-0.8,0-1.2c-0.5-3.8-2.5-7.9-7.5-7.6
					C2.6,35,0,37.4,0,40.4c0,0.7,0.1,1.5,0.5,2.3c0.1,0.2,0.2,0.4,0.3,0.6c0.3,0.6,0.6,1.1,1,1.5L1.8,45v0.3c0,1.6,0.3,3.3,1,4.7
					c0.6,1.2,1.6,2.2,2.9,2.8v0c0.5,0.1,1,0.2,1.4,0.2c1.7-0.1,3.2-1.2,4.2-2.8c0.5-0.7,0.9-1.5,1.2-2.4l0.1-0.3l0.3-0.1
					c1.7-0.4,2.8-1,3.7-1.5c0,0,0.1-0.1,0.1-0.1l0,0.5c0,0.2,0,0.4,0,0.6c0,0.3,0.7,0.5,0.7,0.2l0-0.4c0.4-0.8,1.8-1.7,3.2-1.9
					c0,0.2-0.1,0.4-0.1,0.7c0,0.3,0.1,0.7,0.2,1c0.4,0.5,1,0.7,1.5,0.7c1.1,0,2.1-0.7,2.7-1.2c0.1,1.1,1.1,1.7,2.1,1.7
					c1.8-0.1,3-1,3.5-1.7c0.3,1.2,1.7,1.7,3.1,1.7c3-0.1,7.9-2,8.1-3.1C42.1,44.2,41.9,44.2,41.7,44.2L41.7,44.2z M32.8,44.1
					c-0.1,0.4-0.9,1.1-1.3,0.9C31.5,44.6,31.9,44,32.8,44.1z M11.6,48.1c-0.2,0.6-0.5,1.1-0.9,1.6c-1,1.6-2.4,2.6-3.8,2.6
					c-0.4,0-0.8,0-1.1-0.1L5.6,52c-0.9-0.4-1.6-1.2-2.1-2.2c-0.5-1.1-0.9-2.4-0.9-3.8l0-0.4l0.1,0.1C3,46,3.5,46.3,3.9,46.5
					c1.5,0.8,3.2,1.2,4.9,1.2c0.2,0,0.4,0,0.6,0c0.6,0,1.2-0.1,1.8-0.2l0.6-0.1L11.6,48.1L11.6,48.1z M12.2,46.3L12,46.7
					c-0.9,0.2-1.9,0.3-2.9,0.4c-0.2,0-0.4,0-0.6,0c-2,0-4.2-0.5-5.7-1.8l-0.3-0.3v-0.1c0.1-1.6,0.4-3,0.9-4.2
					c0.5-1.2,1.2-1.9,1.9-1.9c0.2,0,0.3-0.2,0.2-0.3c-0.1-0.2-0.3-0.3-0.5-0.2c-1,0.1-1.8,1-2.3,2.1c-0.5,1-0.8,2.3-0.9,3.7l0,0.1
					l-0.2-0.2c-0.2-0.4-0.4-0.8-0.6-1.2c-0.3-0.7-0.4-1.4-0.4-2.1c0-2.9,2.5-5.2,5.2-5.3c4.4-0.2,6.1,3.3,6.5,6.9
					c0.1,0.4,0.1,0.8,0.1,1.3C12.5,44.5,12.4,45.5,12.2,46.3L12.2,46.3z"/>
				<path class="st3" d="M41.7,44.2c-0.5,0.4-6,2.7-8.4,2.7c-0.9,0-1.8-0.4-1.9-1.4c1.1,0.1,1.9-0.7,1.9-1.4c0-0.2-0.2-0.4-0.5-0.6
					c-0.2-0.1-0.4-0.1-0.6-0.1c-0.8,0-1.4,0.6-1.6,1.5c-1.1,0.9-2.4,1.8-3.8,1.9c-0.9,0-1.4-0.6-1.2-1.4c0.1-0.7,0.9-1.4,1.6-1.3
					c0,0.2-0.1,0.4-0.1,0.4c-0.1,0.2,0,0.3,0.2,0.2c0.2-0.1,0.6-0.2,0.6-0.5c0-0.2-0.2-0.4-0.4-0.6c-0.2-0.1-0.5-0.2-0.7-0.2
					c-0.4,0-0.8,0.2-1,0.4s-0.5,0.5-0.6,0.8c-0.8,0.5-2.1,1.6-3.1,1.6c-0.2,0-0.5-0.1-0.6-0.2c-0.2-0.4,0-1.1,0-1.4
					c0-0.3-0.4-0.6-0.7-0.7c-1.1-0.1-2.5,0.6-3.1,1.1l0-0.7c0-0.1-0.1-0.3-0.3-0.4c-0.2-0.1-0.4-0.1-0.4,0.1l-0.1,0.8
					c-0.9,0.5-2.5,1.1-3.7,1.4l-0.2,0l0.1-0.4c0.2-0.7,0.2-1.7,0.2-2.6c0-0.4,0-0.8,0-1.2c-0.5-3.8-2.5-7.9-7.5-7.6
					C2.6,35,0,37.4,0,40.4c0,0.7,0.1,1.5,0.5,2.3c0.1,0.2,0.2,0.4,0.3,0.6c0.3,0.6,0.6,1.1,1,1.5L1.8,45v0.3c0,1.6,0.3,3.3,1,4.7
					c0.6,1.2,1.6,2.2,2.9,2.8v0c0.5,0.1,1,0.2,1.4,0.2c1.7-0.1,3.2-1.2,4.2-2.8c0.5-0.7,0.9-1.5,1.2-2.4l0.1-0.3l0.3-0.1
					c1.7-0.4,2.8-1,3.7-1.5c0,0,0.1-0.1,0.1-0.1l0,0.5c0,0.2,0,0.4,0,0.6c0,0.3,0.7,0.5,0.7,0.2l0-0.4c0.4-0.8,1.8-1.7,3.2-1.9
					c0,0.2-0.1,0.4-0.1,0.7c0,0.3,0.1,0.7,0.2,1c0.4,0.5,1,0.7,1.5,0.7c1.1,0,2.1-0.7,2.7-1.2c0.1,1.1,1.1,1.7,2.1,1.7
					c1.8-0.1,3-1,3.5-1.7c0.3,1.2,1.7,1.7,3.1,1.7c3-0.1,7.9-2,8.1-3.1C42.1,44.2,41.9,44.2,41.7,44.2L41.7,44.2z M32.8,44.1
					c-0.1,0.4-0.9,1.1-1.3,0.9C31.5,44.6,31.9,44,32.8,44.1z M11.6,48.1c-0.2,0.6-0.5,1.1-0.9,1.6c-1,1.6-2.4,2.6-3.8,2.6
					c-0.4,0-0.8,0-1.1-0.1L5.6,52c-0.9-0.4-1.6-1.2-2.1-2.2c-0.5-1.1-0.9-2.4-0.9-3.8l0-0.4l0.1,0.1C3,46,3.5,46.3,3.9,46.5
					c1.5,0.8,3.2,1.2,4.9,1.2c0.2,0,0.4,0,0.6,0c0.6,0,1.2-0.1,1.8-0.2l0.6-0.1L11.6,48.1L11.6,48.1z M12.2,46.3L12,46.7
					c-0.9,0.2-1.9,0.3-2.9,0.4c-0.2,0-0.4,0-0.6,0c-2,0-4.2-0.5-5.7-1.8l-0.3-0.3v-0.1c0.1-1.6,0.4-3,0.9-4.2
					c0.5-1.2,1.2-1.9,1.9-1.9c0.2,0,0.3-0.2,0.2-0.3c-0.1-0.2-0.3-0.3-0.5-0.2c-1,0.1-1.8,1-2.3,2.1c-0.5,1-0.8,2.3-0.9,3.7l0,0.1
					l-0.2-0.2c-0.2-0.4-0.4-0.8-0.6-1.2c-0.3-0.7-0.4-1.4-0.4-2.1c0-2.9,2.5-5.2,5.2-5.3c4.4-0.2,6.1,3.3,6.5,6.9
					c0.1,0.4,0.1,0.8,0.1,1.3C12.5,44.5,12.4,45.5,12.2,46.3L12.2,46.3z"/>
			</g>
			<g>
				<path class="st0" d="M48.1,42.4c0.2,0.1,0.4,0.1,0.5,0c0.1-0.1,0.2-0.5,0.2-0.6c0.1-0.1,0.1-0.2,0.1-0.3c0-0.1-0.1-0.2-0.4-0.3
					c-0.2-0.1-0.4,0-0.4,0.1l0,0.3c0,0.1-0.2,0.5-0.2,0.5C47.8,42.1,47.9,42.3,48.1,42.4L48.1,42.4z"/>
				<path class="st3" d="M48.1,42.4c0.2,0.1,0.4,0.1,0.5,0c0.1-0.1,0.2-0.5,0.2-0.6c0.1-0.1,0.1-0.2,0.1-0.3c0-0.1-0.1-0.2-0.4-0.3
					c-0.2-0.1-0.4,0-0.4,0.1l0,0.3c0,0.1-0.2,0.5-0.2,0.5C47.8,42.1,47.9,42.3,48.1,42.4L48.1,42.4z"/>
			</g>
			<g>
				<path class="st0" d="M65.4,45.6c-0.9,0.2-4.2,0.6-6.4,0.6c-0.8,0-1.4,0-1.8-0.2c-0.3-0.1-0.4-0.2-0.4-0.5c0-0.3,0.1-0.6,0.1-0.8
					c0-0.3-0.3-0.6-0.7-0.7C55,44,53.6,44.7,53,45.2l0-0.7c0-0.1-0.2-0.3-0.3-0.4c-0.2-0.1-0.4-0.1-0.4,0.1l-0.1,0.6
					c-0.8,0.7-2.5,1.9-3.5,1.9c-0.2,0-0.4-0.1-0.6-0.2c-0.3-0.2,0.1-2.4,0.2-2.6c0-0.1-0.1-0.2-0.3-0.3c-0.2-0.1-0.4,0-0.4,0.1
					c-0.2,0.3-0.3,0.9-0.3,1.5c0,0.6,0.1,1.3,0.4,1.6c0.4,0.4,0.9,0.5,1.4,0.5c1.1,0,2.4-1,3.1-1.8l-0.1,0.6c0,0.2,0,0.4,0,0.6
					c0,0.3,0.7,0.5,0.7,0.2l0-0.4c0.4-0.8,1.8-1.7,3.2-1.9c-0.2,1.8,1.2,2,1.5,2.2c0.5,0.1,1.1,0.2,1.8,0.2c2.1,0,4.9-0.5,6.3-0.9
					c0.1,0,0.9-0.3,0.8-0.5C66.2,45.4,65.5,45.6,65.4,45.6L65.4,45.6z"/>
				<path class="st3" d="M65.4,45.6c-0.9,0.2-4.2,0.6-6.4,0.6c-0.8,0-1.4,0-1.8-0.2c-0.3-0.1-0.4-0.2-0.4-0.5c0-0.3,0.1-0.6,0.1-0.8
					c0-0.3-0.3-0.6-0.7-0.7C55,44,53.6,44.7,53,45.2l0-0.7c0-0.1-0.2-0.3-0.3-0.4c-0.2-0.1-0.4-0.1-0.4,0.1l-0.1,0.6
					c-0.8,0.7-2.5,1.9-3.5,1.9c-0.2,0-0.4-0.1-0.6-0.2c-0.3-0.2,0.1-2.4,0.2-2.6c0-0.1-0.1-0.2-0.3-0.3c-0.2-0.1-0.4,0-0.4,0.1
					c-0.2,0.3-0.3,0.9-0.3,1.5c0,0.6,0.1,1.3,0.4,1.6c0.4,0.4,0.9,0.5,1.4,0.5c1.1,0,2.4-1,3.1-1.8l-0.1,0.6c0,0.2,0,0.4,0,0.6
					c0,0.3,0.7,0.5,0.7,0.2l0-0.4c0.4-0.8,1.8-1.7,3.2-1.9c-0.2,1.8,1.2,2,1.5,2.2c0.5,0.1,1.1,0.2,1.8,0.2c2.1,0,4.9-0.5,6.3-0.9
					c0.1,0,0.9-0.3,0.8-0.5C66.2,45.4,65.5,45.6,65.4,45.6L65.4,45.6z"/>
			</g>
			<g>
				<path class="st0" d="M88.1,45.8c-0.9,0.2-4.2,0.6-6.4,0.6c-0.8,0-1.4,0-1.8-0.2c-0.4-0.1-0.6-0.5-0.6-0.9c0-0.3,0.1-0.7,0.3-1
					l0-0.1c0.1-0.2-0.6-0.7-0.7-0.4c0,0,0,0-0.3,0.4l-0.3-0.1c-0.5-0.2-1.1-0.2-1.5-0.2c-0.8,0-1.4,0.2-1.8,0.5
					c-0.3,0.3-0.5,0.6-0.5,0.9c0,0.2,0.1,0.4,0.2,0.7c0.3,0.4,0.8,0.7,1.3,0.7c1,0,1.8-0.8,2.5-1.3v0c0,0.6,1.1,1.4,1.7,1.5
					c0.5,0.1,1.1,0.2,1.8,0.2c2.1,0,4.9-0.5,6.2-0.9c0.1,0,0.9-0.3,0.8-0.5C89,45.6,88.3,45.8,88.1,45.8L88.1,45.8z M78.2,44.7
					c-0.5,0.6-1.7,1.5-2.5,1.5c-0.3,0-0.5-0.2-0.5-0.4c0-0.3,0.2-0.6,0.5-0.8c0.4-0.3,1-0.4,1.5-0.4c0.3,0,0.5,0,0.8,0.1L78.2,44.7
					L78.2,44.7L78.2,44.7z"/>
				<path class="st3" d="M88.1,45.8c-0.9,0.2-4.2,0.6-6.4,0.6c-0.8,0-1.4,0-1.8-0.2c-0.4-0.1-0.6-0.5-0.6-0.9c0-0.3,0.1-0.7,0.3-1
					l0-0.1c0.1-0.2-0.6-0.7-0.7-0.4c0,0,0,0-0.3,0.4l-0.3-0.1c-0.5-0.2-1.1-0.2-1.5-0.2c-0.8,0-1.4,0.2-1.8,0.5
					c-0.3,0.3-0.5,0.6-0.5,0.9c0,0.2,0.1,0.4,0.2,0.7c0.3,0.4,0.8,0.7,1.3,0.7c1,0,1.8-0.8,2.5-1.3v0c0,0.6,1.1,1.4,1.7,1.5
					c0.5,0.1,1.1,0.2,1.8,0.2c2.1,0,4.9-0.5,6.2-0.9c0.1,0,0.9-0.3,0.8-0.5C89,45.6,88.3,45.8,88.1,45.8L88.1,45.8z M78.2,44.7
					c-0.5,0.6-1.7,1.5-2.5,1.5c-0.3,0-0.5-0.2-0.5-0.4c0-0.3,0.2-0.6,0.5-0.8c0.4-0.3,1-0.4,1.5-0.4c0.3,0,0.5,0,0.8,0.1L78.2,44.7
					L78.2,44.7L78.2,44.7z"/>
			</g>
			<g>
				<path class="st0" d="M124.2,44.2c-0.5,0.4-6,2.7-8.4,2.7c-0.9,0-1.8-0.4-1.9-1.4c1.1,0.1,1.9-0.7,1.9-1.4c0-0.2-0.2-0.4-0.5-0.6
					c-0.2-0.1-0.4-0.1-0.6-0.1c-0.8,0-1.5,0.6-1.6,1.6c0,0,0,0,0,0c-0.7,0.6-1.7,1.4-2.8,1.4c-0.5-0.1-0.7-0.5-0.8-1
					c0-0.3,0-0.7,0-0.8c0-0.3-0.6-0.6-0.7-0.4c-0.2,0.7-1.4,2.7-2.2,2.2c-0.2-0.1-0.3-0.4-0.3-0.8c0-0.5,0.2-1.1,0.4-1.2
					c0.1-0.1,0.1-0.2,0-0.3c-0.2-0.2-0.4-0.3-0.5-0.2c-0.2,0.1-0.3,0.2-0.4,0.4c-0.1,0.2-0.2,0.5-0.2,0.7c0-0.2-0.1-0.4-0.2-0.2
					c-0.3,0.4-2.6,3.5-3.6,2.9c-0.4-0.3-0.6-1.7-0.6-3.4c0-3.3,0.6-7.9,0.7-8.3c0-0.1-0.2-0.2-0.3-0.3c-0.2-0.1-0.3-0.1-0.3,0.1
					c-0.2,0.8-0.8,4.9-0.8,8.1c0,0.3,0,0.6,0,0.9c-0.8,0.6-2,1.2-2.9,1.4l0.1-0.3c0.1-0.2,0.1-0.5,0.1-0.8c0-0.4-0.1-0.9-0.5-1.3
					l-0.1-0.1c-0.2-0.2-0.4-0.2-0.6-0.3c-0.8-0.2-2.1,1.4-2.4,2.2c-0.1-1-0.1-2.2-0.1-3.5c0-2.5,0.1-5,0.3-5.7
					c0.1-0.1-0.1-0.3-0.2-0.4c-0.2-0.1-0.4-0.1-0.4,0c-0.2,0.7-0.3,3-0.3,5.2V42c0,1.2,0,2.5,0.1,3.5l0.2,1.2
					c0.1,0.3,0.1,0.6,0.2,0.7c0,0,0,0.1,0.1,0.1c0,0,0.1,0.2,0.2,0.2c0.2,0.1,0.3,0,0.3,0c0,0,0.1-0.1,0.1-0.1c0-0.1,0.1-0.2,0-0.3
					l0.1-0.5l0.1-0.2l0,0c0.4,0.3,1.5,0.3,1.8,0.3l0.1,0H97c1.6,0,2.9-0.7,3.6-1.5c0.1,0.9,0.2,1.7,0.4,2.1c0.4,0.5,0.9,0.9,1.5,0.9
					c1.2,0,2.8-2.1,3.1-3c0,0,0,0,0-0.1c0,0.2,0,0.5,0.1,0.7c0.2,0.7,0.9,1.2,1.5,1.2c0.8,0,1.3-0.7,1.7-1.2
					c0.3,0.6,0.9,1.1,1.6,1.1c1.2,0.1,2.1-0.7,2.5-1.3c0.3,1.2,1.7,1.7,3.1,1.7c3-0.1,7.9-2,8.2-3.1
					C124.5,44.2,124.3,44.1,124.2,44.2L124.2,44.2z M115.2,44.1c-0.1,0.4-0.9,1.1-1.3,0.9C114,44.6,114.4,44,115.2,44.1z M95.7,46.5
					c-0.2,0-0.4,0-0.6-0.1l0,0c0.8-1.2,1.3-2,2-2.2h0l0.1,0.1c0.1,0.1,0.2,0.3,0.2,0.6C97.3,45.7,96.5,46.5,95.7,46.5L95.7,46.5z"/>
				<path class="st3" d="M124.2,44.2c-0.5,0.4-6,2.7-8.4,2.7c-0.9,0-1.8-0.4-1.9-1.4c1.1,0.1,1.9-0.7,1.9-1.4c0-0.2-0.2-0.4-0.5-0.6
					c-0.2-0.1-0.4-0.1-0.6-0.1c-0.8,0-1.5,0.6-1.6,1.6c0,0,0,0,0,0c-0.7,0.6-1.7,1.4-2.8,1.4c-0.5-0.1-0.7-0.5-0.8-1
					c0-0.3,0-0.7,0-0.8c0-0.3-0.6-0.6-0.7-0.4c-0.2,0.7-1.4,2.7-2.2,2.2c-0.2-0.1-0.3-0.4-0.3-0.8c0-0.5,0.2-1.1,0.4-1.2
					c0.1-0.1,0.1-0.2,0-0.3c-0.2-0.2-0.4-0.3-0.5-0.2c-0.2,0.1-0.3,0.2-0.4,0.4c-0.1,0.2-0.2,0.5-0.2,0.7c0-0.2-0.1-0.4-0.2-0.2
					c-0.3,0.4-2.6,3.5-3.6,2.9c-0.4-0.3-0.6-1.7-0.6-3.4c0-3.3,0.6-7.9,0.7-8.3c0-0.1-0.2-0.2-0.3-0.3c-0.2-0.1-0.3-0.1-0.3,0.1
					c-0.2,0.8-0.8,4.9-0.8,8.1c0,0.3,0,0.6,0,0.9c-0.8,0.6-2,1.2-2.9,1.4l0.1-0.3c0.1-0.2,0.1-0.5,0.1-0.8c0-0.4-0.1-0.9-0.5-1.3
					l-0.1-0.1c-0.2-0.2-0.4-0.2-0.6-0.3c-0.8-0.2-2.1,1.4-2.4,2.2c-0.1-1-0.1-2.2-0.1-3.5c0-2.5,0.1-5,0.3-5.7
					c0.1-0.1-0.1-0.3-0.2-0.4c-0.2-0.1-0.4-0.1-0.4,0c-0.2,0.7-0.3,3-0.3,5.2V42c0,1.2,0,2.5,0.1,3.5l0.2,1.2
					c0.1,0.3,0.1,0.6,0.2,0.7c0,0,0,0.1,0.1,0.1c0,0,0.1,0.2,0.2,0.2c0.2,0.1,0.3,0,0.3,0c0,0,0.1-0.1,0.1-0.1c0-0.1,0.1-0.2,0-0.3
					l0.1-0.5l0.1-0.2l0,0c0.4,0.3,1.5,0.3,1.8,0.3l0.1,0H97c1.6,0,2.9-0.7,3.6-1.5c0.1,0.9,0.2,1.7,0.4,2.1c0.4,0.5,0.9,0.9,1.5,0.9
					c1.2,0,2.8-2.1,3.1-3c0,0,0,0,0-0.1c0,0.2,0,0.5,0.1,0.7c0.2,0.7,0.9,1.2,1.5,1.2c0.8,0,1.3-0.7,1.7-1.2
					c0.3,0.6,0.9,1.1,1.6,1.1c1.2,0.1,2.1-0.7,2.5-1.3c0.3,1.2,1.7,1.7,3.1,1.7c3-0.1,7.9-2,8.2-3.1
					C124.5,44.2,124.3,44.1,124.2,44.2L124.2,44.2z M115.2,44.1c-0.1,0.4-0.9,1.1-1.3,0.9C114,44.6,114.4,44,115.2,44.1z M95.7,46.5
					c-0.2,0-0.4,0-0.6-0.1l0,0c0.8-1.2,1.3-2,2-2.2h0l0.1,0.1c0.1,0.1,0.2,0.3,0.2,0.6C97.3,45.7,96.5,46.5,95.7,46.5L95.7,46.5z"/>
			</g>
		</g>
	</g>
</g>
</svg>
